<?xml version="1.0" standalone="no"?>
<!DOCTYPE svg PUBLIC "-//W3C//DTD SVG 20010904//EN"
 "http://www.w3.org/TR/2001/REC-SVG-20010904/DTD/svg10.dtd">
<svg version="1.0" xmlns="http://www.w3.org/2000/svg"
 width="600.000000pt" height="600.000000pt" viewBox="0 0 600.000000 600.000000"
 preserveAspectRatio="xMidYMid meet">
<metadata>
Created by potrace 1.15, written by Peter Selinger 2001-2017
</metadata>
<g transform="translate(0.000000,600.000000) scale(0.100000,-0.100000)"
fill="#000000" stroke="none">
<path d="M2525 5890 c-320 -24 -546 -57 -628 -92 -52 -22 -67 -44 -85 -118
-16 -68 -59 -422 -87 -729 -15 -166 -29 -278 -36 -282 -30 -18 -180 -33 -337
-34 -160 0 -175 -2 -188 -19 -27 -38 -14 -84 42 -146 127 -140 663 -276 1304
-331 314 -27 962 11 1490 87 257 37 517 103 692 176 151 62 194 109 130 142
-15 8 -95 24 -177 36 -240 34 -367 70 -402 112 -34 40 -77 296 -93 543 -12
186 -42 396 -66 463 -26 70 -108 118 -252 147 -188 37 -1023 66 -1307 45z"/>
<path d="M1600 3880 l0 -110 50 0 50 0 0 -50 0 -50 55 0 55 0 0 -55 0 -55 55
0 55 0 0 -55 0 -55 378 2 377 3 3 53 3 52 49 0 49 0 3 53 3 52 53 3 52 3 0
105 0 104 110 0 110 0 0 -104 0 -105 53 -3 52 -3 3 -52 3 -53 49 0 49 0 3 -52
3 -53 378 -3 377 -2 0 55 0 55 55 0 55 0 0 55 0 55 55 0 55 0 0 50 0 50 50 0
50 0 0 110 0 110 -1400 0 -1400 0 0 -110z m320 -55 l0 -55 55 0 55 0 0 55 0
55 55 0 55 0 0 -55 0 -55 50 0 50 0 0 -50 0 -50 55 0 55 0 0 -55 0 -55 -55 0
-55 0 0 55 0 55 -50 0 -50 0 0 -55 0 -55 -55 0 -55 0 0 55 0 55 -55 0 -55 0 0
50 0 50 -55 0 -55 0 0 55 0 55 55 0 55 0 0 -55z m1400 0 l0 -55 55 0 55 0 0
55 0 55 55 0 55 0 0 -55 0 -55 55 0 55 0 0 -50 0 -50 50 0 50 0 0 -55 0 -55
-50 0 -50 0 0 55 0 55 -55 0 -55 0 0 50 0 50 -55 0 -55 0 0 -49 0 -50 53 -3
52 -3 3 -52 3 -53 -55 0 -56 0 0 55 0 55 -55 0 -55 0 0 49 0 50 -52 3 -53 3
-3 39 c-5 59 1 66 58 66 l50 0 0 -55z"/>
<path d="M2850 3009 c-36 -4 -96 -16 -135 -27 -38 -11 -82 -23 -97 -26 -15 -3
-55 -25 -90 -49 -35 -23 -74 -47 -88 -53 -70 -31 -162 -150 -175 -224 -4 -22
-1 -81 6 -130 10 -79 10 -105 -6 -202 -24 -148 -17 -210 31 -307 52 -103 132
-181 257 -250 140 -77 165 -84 292 -86 61 -1 151 -5 200 -9 108 -10 177 5 282
58 75 38 265 161 301 195 12 12 46 70 74 128 l51 105 -8 96 c-9 104 -9 130 -4
322 l4 125 -36 75 c-20 41 -47 85 -60 96 -42 37 -189 94 -243 94 -32 0 -68 9
-105 26 -49 24 -70 27 -171 29 -63 2 -127 6 -142 9 -55 12 -74 13 -138 5z m-5
-384 c85 -30 198 -33 313 -9 141 30 250 18 302 -34 34 -34 75 -165 71 -224 -1
-16 -42 -68 -113 -141 -30 -31 -42 -37 -60 -32 -40 12 -65 44 -113 141 -52
106 -76 126 -199 163 -97 30 -131 27 -217 -16 -101 -52 -118 -78 -149 -235 -6
-33 -17 -58 -24 -58 -6 0 -29 21 -51 46 -26 32 -58 56 -102 76 -35 16 -67 36
-70 44 -10 26 16 156 40 199 50 90 232 130 372 80z"/>
<path d="M4045 1421 c-16 -4 -109 -48 -205 -98 -96 -50 -188 -94 -204 -97 -43
-10 -86 11 -93 46 -7 36 -23 47 -23 15 0 -35 34 -65 95 -82 45 -13 56 -21 62
-43 5 -15 8 -130 8 -257 0 -210 -2 -233 -20 -270 l-20 -40 -93 0 -93 0 -56
-63 c-30 -35 -53 -65 -51 -67 3 -3 85 -18 184 -35 98 -16 231 -42 294 -58 221
-56 216 -55 247 -40 16 8 48 47 80 98 43 68 53 92 53 127 0 50 -28 84 -86 103
-52 17 -65 5 -16 -15 77 -31 115 -101 74 -138 -38 -35 -115 -32 -282 11 -85
22 -172 42 -192 46 -21 4 -38 11 -38 15 0 8 72 58 167 117 44 27 86 68 134
127 l39 49 0 253 c0 251 0 254 22 269 13 10 44 16 74 16 61 0 110 -32 117 -78
3 -16 4 -11 3 13 -1 32 -6 42 -31 56 -36 21 -109 31 -150 20z m-185 -373 c0
-235 -8 -318 -32 -318 -7 0 -8 13 -4 38 3 20 6 146 6 280 0 208 2 242 15 242
13 0 15 -34 15 -242z"/>
<path d="M1906 1350 c-81 -70 -118 -82 -145 -49 -18 22 -18 20 -4 -67 11 -67
14 -166 11 -404 -3 -285 -5 -319 -21 -344 -18 -27 -18 -27 16 -69 53 -65 59
-80 41 -106 -9 -12 -13 -25 -10 -29 7 -7 166 147 166 161 0 4 -14 26 -32 47
l-31 40 6 221 c3 121 7 223 10 225 2 3 35 -3 72 -12 l67 -17 -7 -31 c-4 -17
-10 -166 -14 -331 -8 -341 -11 -354 -83 -429 -26 -27 -46 -51 -44 -54 21 -20
158 114 222 218 l39 65 0 285 c1 157 4 311 9 342 7 57 7 57 -21 64 -83 18 -97
28 -82 55 18 35 -6 19 -71 -46 -35 -36 -70 -65 -77 -65 -10 0 -13 31 -13 133
1 192 28 243 126 235 44 -3 58 5 28 16 -9 3 -32 6 -52 6 -30 -1 -49 -11 -106
-60z"/>
<path d="M4643 1378 c-21 -17 -59 -44 -85 -60 -27 -16 -48 -31 -48 -33 0 -1 7
-19 15 -38 22 -54 20 -169 -5 -217 -25 -48 -25 -46 1 -53 l21 -6 -3 -435 c-2
-240 -2 -436 1 -436 3 0 33 27 68 60 l62 59 1 278 c1 153 4 323 8 378 l6 100
30 3 c19 3 33 -2 42 -14 11 -15 13 -6 13 64 l0 82 -44 0 -44 0 -7 66 c-4 36
-4 69 0 72 3 4 20 -1 38 -11 30 -18 32 -18 44 -1 32 44 42 129 17 160 -15 19
-15 18 -9 -3 9 -32 -8 -35 -47 -8 l-36 24 -39 -31z"/>
<path d="M1500 1367 c-30 -19 -73 -46 -95 -61 l-40 -28 -170 6 c-93 3 -187 8
-208 12 -37 6 -41 4 -91 -49 -73 -77 -130 -187 -130 -253 -1 -62 15 -84 61
-84 73 0 156 68 207 168 14 27 32 52 41 56 9 3 56 6 103 6 l87 -1 -31 -27
c-18 -15 -51 -40 -75 -57 -62 -43 -149 -125 -165 -157 -8 -15 -14 -47 -14 -71
0 -60 43 -200 73 -240 79 -104 228 -206 345 -237 37 -10 80 -23 96 -29 28 -11
28 -12 11 -31 -13 -15 -14 -20 -5 -20 28 0 131 120 161 186 34 74 34 112 0 46
-25 -50 -35 -51 -125 -18 -83 30 -116 51 -116 76 0 22 55 66 135 108 47 25 48
27 23 30 -20 2 -30 11 -34 29 -9 35 5 386 16 397 5 5 25 4 47 -1 31 -7 39 -13
41 -36 6 -50 22 -28 22 31 0 31 7 79 15 106 8 27 15 53 15 58 0 4 -34 8 -76 8
l-76 0 4 38 c3 20 8 45 12 55 11 25 -2 21 -64 -16z m-460 -240 c0 -29 -83
-138 -124 -162 -64 -37 -101 -33 -125 14 -27 51 18 130 85 151 47 14 164 12
164 -3z m308 -76 c3 -84 -21 -381 -34 -414 -9 -25 -26 -21 -61 16 -96 101
-133 189 -118 282 7 53 68 132 134 176 68 45 75 39 79 -60z m42 -196 c0 -272
-1 -285 -19 -285 -41 0 -45 23 -26 148 10 64 20 180 22 257 4 136 7 165 18
165 3 0 5 -128 5 -285z"/>
<path d="M2900 1117 c-31 -29 -78 -68 -104 -87 l-48 -35 -4 -256 c-3 -198 -7
-264 -19 -292 l-15 -36 54 -30 c86 -49 86 -50 16 -125 l-61 -65 33 -16 c18 -8
51 -27 73 -41 52 -32 88 -27 186 26 140 77 153 106 139 295 -22 296 -24 438
-5 520 20 91 26 83 -97 122 -73 22 -88 30 -90 49 -3 21 -8 19 -58 -29z m80
-156 c36 -10 65 -22 64 -27 0 -5 -9 -27 -20 -49 -17 -35 -19 -63 -19 -240 0
-228 0 -228 -80 -180 l-45 26 0 108 c0 188 12 381 24 381 6 -1 40 -9 76 -19z
m48 -656 c5 -92 1 -99 -53 -89 -43 8 -119 73 -110 94 3 8 36 37 72 63 80 57
83 55 91 -68z"/>
<path d="M2252 1091 c-29 -41 -52 -79 -52 -86 0 -7 9 -20 20 -30 19 -17 20
-31 20 -248 0 -149 -4 -244 -12 -270 -11 -38 -11 -40 17 -61 75 -54 95 -77 85
-97 -18 -34 1 -21 77 51 83 80 89 80 138 11 23 -34 25 -43 15 -56 -7 -9 -10
-19 -5 -23 13 -13 125 133 125 164 0 10 -7 25 -15 34 -12 13 -15 63 -16 275
-1 143 1 280 5 306 l8 45 -39 10 c-28 7 -37 14 -35 27 5 30 -14 19 -67 -39
-75 -82 -78 -91 -42 -112 l31 -17 0 -233 c0 -189 -3 -239 -15 -262 -19 -36
-34 -37 -80 -7 l-35 22 1 293 c0 162 -1 294 -3 295 -50 26 -63 36 -68 57 -5
23 -10 19 -58 -49z"/>
<path d="M4348 1126 c-16 -19 -41 -43 -58 -53 -33 -19 -38 -39 -15 -69 21 -28
22 -511 0 -540 -22 -29 -19 -41 26 -94 29 -34 40 -55 36 -70 -11 -41 23 -19
77 51 31 39 56 76 56 83 0 6 -8 23 -17 36 -16 23 -18 52 -16 296 1 150 7 282
12 297 9 23 7 28 -24 47 -19 12 -35 28 -35 36 0 23 -13 16 -42 -20z"/>
<path d="M4970 1104 c-41 -30 -88 -65 -103 -77 l-28 -22 -4 -270 c-2 -148 -6
-285 -7 -304 l-3 -34 105 -24 c57 -13 109 -28 114 -33 6 -6 5 -19 -2 -35 -18
-39 2 -30 48 23 61 70 112 181 108 234 l-3 43 -14 -55 c-7 -30 -18 -60 -22
-66 -7 -8 -33 -6 -94 9 l-85 21 0 56 c0 56 0 57 42 80 94 53 208 186 208 243
0 43 -42 106 -120 183 -33 32 -58 65 -55 71 7 21 -6 14 -85 -43z m90 -205 c53
-75 60 -128 24 -176 -20 -27 -81 -56 -96 -46 -9 5 -10 238 -2 271 9 33 23 24
74 -49z"/>
</g>
</svg>
